<svg xmlns="http://www.w3.org/2000/svg" viewBox="0 0 22 22" width="22" height="22">
  <!-- macOS template image: black on transparent, system handles dark/light -->
  <g transform="translate(1, 0.5) scale(0.019)">
    <!-- F body simplified -->
    <path d="
      M 660,250
      L 390,250
      A 40,40 0 0,0 350,290
      L 350,580
      C 350,650 280,680 280,710
      A 40,40 0 0,0 320,750
      L 460,750
      A 40,40 0 0,0 500,710
      C 500,680 430,650 430,580
      L 430,330
      A 10,10 0 0,1 440,320
      L 660,320
      A 35,35 0 0,0 660,250
      Z"
      fill="#000000" />
    <!-- Waveform bars -->
    <rect x="450" y="440" width="24" height="40" rx="12" fill="#000000" />
    <rect x="490" y="420" width="24" height="80" rx="12" fill="#000000" />
    <rect x="530" y="395" width="24" height="130" rx="12" fill="#000000" />
    <rect x="570" y="415" width="24" height="90" rx="12" fill="#000000" />
    <rect x="610" y="435" width="24" height="50" rx="12" fill="#000000" />
    <!-- Sound arcs -->
    <path d="M 350,780 Q 390,810 430,780" fill="none" stroke="#000000" stroke-width="14" stroke-linecap="round"/>
    <path d="M 330,810 Q 390,855 450,810" fill="none" stroke="#000000" stroke-width="14" stroke-linecap="round"/>
  </g>
</svg>
